%TF.GenerationSoftware,KiCad,Pcbnew,9.0.7*%
%TF.CreationDate,2026-02-18T12:12:19+05:30*%
%TF.ProjectId,RenPad,52656e50-6164-42e6-9b69-6361645f7063,rev?*%
%TF.SameCoordinates,Original*%
%TF.FileFunction,Profile,NP*%
%FSLAX46Y46*%
G04 Gerber Fmt 4.6, Leading zero omitted, Abs format (unit mm)*
G04 Created by KiCad (PCBNEW 9.0.7) date 2026-02-18 12:12:19*
%MOMM*%
%LPD*%
G01*
G04 APERTURE LIST*
%TA.AperFunction,Profile*%
%ADD10C,0.050000*%
%TD*%
%TA.AperFunction,Profile*%
%ADD11C,0.100000*%
%TD*%
G04 APERTURE END LIST*
D10*
X95250000Y-52387500D02*
X195262500Y-52387500D01*
X195262500Y-119062500D01*
X95250000Y-119062500D01*
X95250000Y-52387500D01*
D11*
%TO.C,D12*%
X103512502Y-66627800D02*
X103512502Y-65222116D01*
X104418049Y-64424959D02*
X106006954Y-64424959D01*
X106006953Y-67424958D02*
X104418049Y-67424958D01*
X106912500Y-65222116D02*
X106912500Y-66627800D01*
X103463017Y-65005238D02*
G75*
G02*
X103512502Y-65222116I-450505J-216876D01*
G01*
X103463017Y-65005238D02*
G75*
G02*
X104165790Y-64356659I450515J216878D01*
G01*
X103512502Y-66627801D02*
G75*
G02*
X103463017Y-66844678I-499990J-1D01*
G01*
X104165790Y-67493255D02*
G75*
G02*
X103463017Y-66844678I-252258J431700D01*
G01*
X104165791Y-67493257D02*
G75*
G02*
X104418049Y-67424958I252261J-431710D01*
G01*
X104418048Y-64424958D02*
G75*
G02*
X104165790Y-64356659I3J500009D01*
G01*
X106006953Y-67424958D02*
G75*
G02*
X106259212Y-67493257I-3J-500012D01*
G01*
X106259212Y-64356660D02*
G75*
G02*
X106006954Y-64424960I-252262J431710D01*
G01*
X106259212Y-64356660D02*
G75*
G02*
X106961984Y-65005238I252258J-431700D01*
G01*
X106912500Y-65222115D02*
G75*
G02*
X106961979Y-65005235I500000J15D01*
G01*
X106961985Y-66844677D02*
G75*
G02*
X106259212Y-67493257I-450514J-216880D01*
G01*
X106961985Y-66844678D02*
G75*
G02*
X106912500Y-66627800I450515J216878D01*
G01*
%TO.C,D9*%
X143556302Y-86325000D02*
X143556302Y-84919316D01*
X144461849Y-84122159D02*
X146050754Y-84122159D01*
X146050753Y-87122158D02*
X144461849Y-87122158D01*
X146956300Y-84919316D02*
X146956300Y-86325000D01*
X143506817Y-84702438D02*
G75*
G02*
X143556302Y-84919316I-450505J-216876D01*
G01*
X143506817Y-84702438D02*
G75*
G02*
X144209590Y-84053859I450515J216878D01*
G01*
X143556302Y-86325001D02*
G75*
G02*
X143506817Y-86541878I-499990J-1D01*
G01*
X144209590Y-87190455D02*
G75*
G02*
X143506817Y-86541878I-252258J431700D01*
G01*
X144209591Y-87190457D02*
G75*
G02*
X144461849Y-87122158I252261J-431710D01*
G01*
X144461848Y-84122158D02*
G75*
G02*
X144209590Y-84053859I3J500009D01*
G01*
X146050753Y-87122158D02*
G75*
G02*
X146303012Y-87190457I-3J-500012D01*
G01*
X146303012Y-84053860D02*
G75*
G02*
X146050754Y-84122160I-252262J431710D01*
G01*
X146303012Y-84053860D02*
G75*
G02*
X147005784Y-84702438I252258J-431700D01*
G01*
X146956300Y-84919315D02*
G75*
G02*
X147005779Y-84702435I500000J15D01*
G01*
X147005785Y-86541877D02*
G75*
G02*
X146303012Y-87190457I-450514J-216880D01*
G01*
X147005785Y-86541878D02*
G75*
G02*
X146956300Y-86325000I450515J216878D01*
G01*
%TO.C,D10*%
X143556302Y-98231200D02*
X143556302Y-96825516D01*
X144461849Y-96028359D02*
X146050754Y-96028359D01*
X146050753Y-99028358D02*
X144461849Y-99028358D01*
X146956300Y-96825516D02*
X146956300Y-98231200D01*
X143506817Y-96608638D02*
G75*
G02*
X143556302Y-96825516I-450505J-216876D01*
G01*
X143506817Y-96608638D02*
G75*
G02*
X144209590Y-95960059I450515J216878D01*
G01*
X143556302Y-98231201D02*
G75*
G02*
X143506817Y-98448078I-499990J-1D01*
G01*
X144209590Y-99096655D02*
G75*
G02*
X143506817Y-98448078I-252258J431700D01*
G01*
X144209591Y-99096657D02*
G75*
G02*
X144461849Y-99028358I252261J-431710D01*
G01*
X144461848Y-96028358D02*
G75*
G02*
X144209590Y-95960059I3J500009D01*
G01*
X146050753Y-99028358D02*
G75*
G02*
X146303012Y-99096657I-3J-500012D01*
G01*
X146303012Y-95960060D02*
G75*
G02*
X146050754Y-96028360I-252262J431710D01*
G01*
X146303012Y-95960060D02*
G75*
G02*
X147005784Y-96608638I252258J-431700D01*
G01*
X146956300Y-96825515D02*
G75*
G02*
X147005779Y-96608635I500000J15D01*
G01*
X147005785Y-98448077D02*
G75*
G02*
X146303012Y-99096657I-450514J-216880D01*
G01*
X147005785Y-98448078D02*
G75*
G02*
X146956300Y-98231200I450515J216878D01*
G01*
%TO.C,D13*%
X115200002Y-66610500D02*
X115200002Y-65204816D01*
X116105549Y-64407659D02*
X117694454Y-64407659D01*
X117694453Y-67407658D02*
X116105549Y-67407658D01*
X118600000Y-65204816D02*
X118600000Y-66610500D01*
X115150517Y-64987938D02*
G75*
G02*
X115200002Y-65204816I-450505J-216876D01*
G01*
X115150517Y-64987938D02*
G75*
G02*
X115853290Y-64339359I450515J216878D01*
G01*
X115200002Y-66610501D02*
G75*
G02*
X115150517Y-66827378I-499990J-1D01*
G01*
X115853290Y-67475955D02*
G75*
G02*
X115150517Y-66827378I-252258J431700D01*
G01*
X115853291Y-67475957D02*
G75*
G02*
X116105549Y-67407658I252261J-431710D01*
G01*
X116105548Y-64407658D02*
G75*
G02*
X115853290Y-64339359I3J500009D01*
G01*
X117694453Y-67407658D02*
G75*
G02*
X117946712Y-67475957I-3J-500012D01*
G01*
X117946712Y-64339360D02*
G75*
G02*
X117694454Y-64407660I-252262J431710D01*
G01*
X117946712Y-64339360D02*
G75*
G02*
X118649484Y-64987938I252258J-431700D01*
G01*
X118600000Y-65204815D02*
G75*
G02*
X118649479Y-64987935I500000J15D01*
G01*
X118649485Y-66827377D02*
G75*
G02*
X117946712Y-67475957I-450514J-216880D01*
G01*
X118649485Y-66827378D02*
G75*
G02*
X118600000Y-66610500I450515J216878D01*
G01*
%TO.C,D11*%
X143556302Y-110137500D02*
X143556302Y-108731816D01*
X144461849Y-107934659D02*
X146050754Y-107934659D01*
X146050753Y-110934658D02*
X144461849Y-110934658D01*
X146956300Y-108731816D02*
X146956300Y-110137500D01*
X143506817Y-108514938D02*
G75*
G02*
X143556302Y-108731816I-450505J-216876D01*
G01*
X143506817Y-108514938D02*
G75*
G02*
X144209590Y-107866359I450515J216878D01*
G01*
X143556302Y-110137501D02*
G75*
G02*
X143506817Y-110354378I-499990J-1D01*
G01*
X144209590Y-111002955D02*
G75*
G02*
X143506817Y-110354378I-252258J431700D01*
G01*
X144209591Y-111002957D02*
G75*
G02*
X144461849Y-110934658I252261J-431710D01*
G01*
X144461848Y-107934658D02*
G75*
G02*
X144209590Y-107866359I3J500009D01*
G01*
X146050753Y-110934658D02*
G75*
G02*
X146303012Y-111002957I-3J-500012D01*
G01*
X146303012Y-107866360D02*
G75*
G02*
X146050754Y-107934660I-252262J431710D01*
G01*
X146303012Y-107866360D02*
G75*
G02*
X147005784Y-108514938I252258J-431700D01*
G01*
X146956300Y-108731815D02*
G75*
G02*
X147005779Y-108514935I500000J15D01*
G01*
X147005785Y-110354377D02*
G75*
G02*
X146303012Y-111002957I-450514J-216880D01*
G01*
X147005785Y-110354378D02*
G75*
G02*
X146956300Y-110137500I450515J216878D01*
G01*
%TD*%
M02*
