M48
; DRILL file {KiCad 9.0.7} date 2026-02-18T12:12:23+0530
; FORMAT={-:-/ absolute / metric / decimal}
; #@! TF.CreationDate,2026-02-18T12:12:23+05:30
; #@! TF.GenerationSoftware,Kicad,Pcbnew,9.0.7
; #@! TF.FileFunction,NonPlated,1,2,NPTH
FMAT,2
METRIC
; #@! TA.AperFunction,NonPlated,NPTH,ComponentDrill
T1C1.700
; #@! TA.AperFunction,NonPlated,NPTH,ComponentDrill
T2C4.000
%
G90
G05
T1
X102.076Y-88.106
X102.09Y-107.188
X112.236Y-88.106
X112.25Y-107.188
X121.126Y-88.106
X121.126Y-107.156
X131.286Y-88.106
X131.286Y-107.156
X158.909Y-88.106
X158.918Y-107.157
X169.069Y-88.106
X169.078Y-107.157
X177.953Y-107.149
X177.959Y-88.106
X188.113Y-107.149
X188.119Y-88.106
T2
X107.156Y-88.106
X107.17Y-107.188
X126.206Y-88.106
X126.206Y-107.156
X163.989Y-88.106
X163.998Y-107.157
X183.033Y-107.149
X183.039Y-88.106
M30
