%TF.GenerationSoftware,KiCad,Pcbnew,9.0.7*%
%TF.CreationDate,2026-02-18T12:12:19+05:30*%
%TF.ProjectId,RenPad,52656e50-6164-42e6-9b69-6361645f7063,rev?*%
%TF.SameCoordinates,Original*%
%TF.FileFunction,Legend,Bot*%
%TF.FilePolarity,Positive*%
%FSLAX46Y46*%
G04 Gerber Fmt 4.6, Leading zero omitted, Abs format (unit mm)*
G04 Created by KiCad (PCBNEW 9.0.7) date 2026-02-18 12:12:19*
%MOMM*%
%LPD*%
G01*
G04 APERTURE LIST*
%ADD10C,0.100000*%
G04 APERTURE END LIST*
D10*
%TO.C,D12*%
X109412501Y-67824958D02*
X108512501Y-67824958D01*
X109412501Y-66924958D01*
X109412501Y-67824958D01*
G36*
X109412501Y-67824958D02*
G01*
X108512501Y-67824958D01*
X109412501Y-66924958D01*
X109412501Y-67824958D01*
G37*
%TO.C,D9*%
X149456301Y-87522158D02*
X148556301Y-87522158D01*
X149456301Y-86622158D01*
X149456301Y-87522158D01*
G36*
X149456301Y-87522158D02*
G01*
X148556301Y-87522158D01*
X149456301Y-86622158D01*
X149456301Y-87522158D01*
G37*
%TO.C,D10*%
X149456301Y-99428358D02*
X148556301Y-99428358D01*
X149456301Y-98528358D01*
X149456301Y-99428358D01*
G36*
X149456301Y-99428358D02*
G01*
X148556301Y-99428358D01*
X149456301Y-98528358D01*
X149456301Y-99428358D01*
G37*
%TO.C,D13*%
X121100001Y-67807658D02*
X120200001Y-67807658D01*
X121100001Y-66907658D01*
X121100001Y-67807658D01*
G36*
X121100001Y-67807658D02*
G01*
X120200001Y-67807658D01*
X121100001Y-66907658D01*
X121100001Y-67807658D01*
G37*
%TO.C,D11*%
X149456301Y-111334658D02*
X148556301Y-111334658D01*
X149456301Y-110434658D01*
X149456301Y-111334658D01*
G36*
X149456301Y-111334658D02*
G01*
X148556301Y-111334658D01*
X149456301Y-110434658D01*
X149456301Y-111334658D01*
G37*
%TD*%
M02*
