%TF.GenerationSoftware,KiCad,Pcbnew,9.0.7*%
%TF.CreationDate,2026-02-18T12:12:19+05:30*%
%TF.ProjectId,RenPad,52656e50-6164-42e6-9b69-6361645f7063,rev?*%
%TF.SameCoordinates,Original*%
%TF.FileFunction,Soldermask,Top*%
%TF.FilePolarity,Negative*%
%FSLAX46Y46*%
G04 Gerber Fmt 4.6, Leading zero omitted, Abs format (unit mm)*
G04 Created by KiCad (PCBNEW 9.0.7) date 2026-02-18 12:12:19*
%MOMM*%
%LPD*%
G01*
G04 APERTURE LIST*
G04 Aperture macros list*
%AMRoundRect*
0 Rectangle with rounded corners*
0 $1 Rounding radius*
0 $2 $3 $4 $5 $6 $7 $8 $9 X,Y pos of 4 corners*
0 Add a 4 corners polygon primitive as box body*
4,1,4,$2,$3,$4,$5,$6,$7,$8,$9,$2,$3,0*
0 Add four circle primitives for the rounded corners*
1,1,$1+$1,$2,$3*
1,1,$1+$1,$4,$5*
1,1,$1+$1,$6,$7*
1,1,$1+$1,$8,$9*
0 Add four rect primitives between the rounded corners*
20,1,$1+$1,$2,$3,$4,$5,0*
20,1,$1+$1,$4,$5,$6,$7,0*
20,1,$1+$1,$6,$7,$8,$9,0*
20,1,$1+$1,$8,$9,$2,$3,0*%
G04 Aperture macros list end*
%ADD10RoundRect,0.250000X0.550000X0.550000X-0.550000X0.550000X-0.550000X-0.550000X0.550000X-0.550000X0*%
%ADD11C,1.600000*%
%ADD12C,1.700000*%
%ADD13C,4.000000*%
%ADD14C,2.200000*%
%ADD15R,1.700000X1.700000*%
%ADD16O,1.700000X1.700000*%
%ADD17R,3.500000X1.700000*%
%ADD18O,3.600000X1.700000*%
%ADD19O,3.700000X1.700000*%
G04 APERTURE END LIST*
D10*
%TO.C,D7*%
X167818400Y-97916000D03*
D11*
X160198400Y-97916000D03*
%TD*%
D12*
%TO.C,SW1*%
X102076300Y-88106200D03*
D13*
X107156300Y-88106200D03*
D12*
X112236300Y-88106200D03*
D14*
X109696300Y-83026200D03*
X103346300Y-85566200D03*
%TD*%
D12*
%TO.C,SW4*%
X121126300Y-107156200D03*
D13*
X126206300Y-107156200D03*
D12*
X131286300Y-107156200D03*
D14*
X128746300Y-102076200D03*
X122396300Y-104616200D03*
%TD*%
D10*
%TO.C,D3*%
X110966300Y-97490000D03*
D11*
X103346300Y-97490000D03*
%TD*%
D12*
%TO.C,SW5*%
X158908800Y-88106200D03*
D13*
X163988800Y-88106200D03*
D12*
X169068800Y-88106200D03*
D14*
X166528800Y-83026200D03*
X160178800Y-85566200D03*
%TD*%
D10*
%TO.C,D2*%
X130016300Y-78581200D03*
D11*
X122396300Y-78581200D03*
%TD*%
D12*
%TO.C,SW6*%
X177958800Y-88106200D03*
D13*
X183038800Y-88106200D03*
D12*
X188118800Y-88106200D03*
D14*
X185578800Y-83026200D03*
X179228800Y-85566200D03*
%TD*%
D15*
%TO.C,J1*%
X162871300Y-62980000D03*
D16*
X162871300Y-65520000D03*
X162871300Y-68060000D03*
X162871300Y-70600000D03*
%TD*%
D10*
%TO.C,D8*%
X186876600Y-97844800D03*
D11*
X179256600Y-97844800D03*
%TD*%
D12*
%TO.C,SW2*%
X121126300Y-88106200D03*
D13*
X126206300Y-88106200D03*
D12*
X131286300Y-88106200D03*
D14*
X128746300Y-83026200D03*
X122396300Y-85566200D03*
%TD*%
D10*
%TO.C,D1*%
X110966300Y-78581200D03*
D11*
X103346300Y-78581200D03*
%TD*%
D12*
%TO.C,SW3*%
X102089700Y-107188400D03*
D13*
X107169700Y-107188400D03*
D12*
X112249700Y-107188400D03*
D14*
X109709700Y-102108400D03*
X103359700Y-104648400D03*
%TD*%
D12*
%TO.C,SW8*%
X177953300Y-107149200D03*
D13*
X183033300Y-107149200D03*
D12*
X188113300Y-107149200D03*
D14*
X185573300Y-102069200D03*
X179223300Y-104609200D03*
%TD*%
D10*
%TO.C,D5*%
X167826600Y-78723600D03*
D11*
X160206600Y-78723600D03*
%TD*%
D12*
%TO.C,SW7*%
X158917800Y-107157100D03*
D13*
X163997800Y-107157100D03*
D12*
X169077800Y-107157100D03*
D14*
X166537800Y-102077100D03*
X160187800Y-104617100D03*
%TD*%
D10*
%TO.C,D4*%
X129063800Y-97631200D03*
D11*
X121443800Y-97631200D03*
%TD*%
D10*
%TO.C,D6*%
X186888800Y-78557500D03*
D11*
X179268800Y-78557500D03*
%TD*%
D17*
%TO.C,U1*%
X170141400Y-55306600D03*
D18*
X170141400Y-57846600D03*
X170141400Y-60386600D03*
X170141400Y-62926600D03*
X170141400Y-65466600D03*
X170141400Y-68006600D03*
X170141400Y-70546600D03*
X187391400Y-70546600D03*
X187391400Y-68006600D03*
X187391400Y-65466600D03*
D19*
X187391400Y-62926600D03*
X187391400Y-60386600D03*
X187391400Y-57846600D03*
X187391400Y-55306600D03*
%TD*%
M02*
