%TF.GenerationSoftware,KiCad,Pcbnew,9.0.7*%
%TF.CreationDate,2026-02-18T12:12:19+05:30*%
%TF.ProjectId,RenPad,52656e50-6164-42e6-9b69-6361645f7063,rev?*%
%TF.SameCoordinates,Original*%
%TF.FileFunction,Copper,L1,Top*%
%TF.FilePolarity,Positive*%
%FSLAX46Y46*%
G04 Gerber Fmt 4.6, Leading zero omitted, Abs format (unit mm)*
G04 Created by KiCad (PCBNEW 9.0.7) date 2026-02-18 12:12:19*
%MOMM*%
%LPD*%
G01*
G04 APERTURE LIST*
G04 Aperture macros list*
%AMRoundRect*
0 Rectangle with rounded corners*
0 $1 Rounding radius*
0 $2 $3 $4 $5 $6 $7 $8 $9 X,Y pos of 4 corners*
0 Add a 4 corners polygon primitive as box body*
4,1,4,$2,$3,$4,$5,$6,$7,$8,$9,$2,$3,0*
0 Add four circle primitives for the rounded corners*
1,1,$1+$1,$2,$3*
1,1,$1+$1,$4,$5*
1,1,$1+$1,$6,$7*
1,1,$1+$1,$8,$9*
0 Add four rect primitives between the rounded corners*
20,1,$1+$1,$2,$3,$4,$5,0*
20,1,$1+$1,$4,$5,$6,$7,0*
20,1,$1+$1,$6,$7,$8,$9,0*
20,1,$1+$1,$8,$9,$2,$3,0*%
G04 Aperture macros list end*
%TA.AperFunction,ComponentPad*%
%ADD10RoundRect,0.250000X0.550000X0.550000X-0.550000X0.550000X-0.550000X-0.550000X0.550000X-0.550000X0*%
%TD*%
%TA.AperFunction,ComponentPad*%
%ADD11C,1.600000*%
%TD*%
%TA.AperFunction,ComponentPad*%
%ADD12C,2.200000*%
%TD*%
%TA.AperFunction,ComponentPad*%
%ADD13R,1.700000X1.700000*%
%TD*%
%TA.AperFunction,ComponentPad*%
%ADD14O,1.700000X1.700000*%
%TD*%
%TA.AperFunction,ComponentPad*%
%ADD15R,3.500000X1.700000*%
%TD*%
%TA.AperFunction,ComponentPad*%
%ADD16O,3.600000X1.700000*%
%TD*%
%TA.AperFunction,ComponentPad*%
%ADD17O,3.700000X1.700000*%
%TD*%
%TA.AperFunction,ViaPad*%
%ADD18C,0.600000*%
%TD*%
%TA.AperFunction,Conductor*%
%ADD19C,0.200000*%
%TD*%
G04 APERTURE END LIST*
D10*
%TO.P,D7,1,K*%
%TO.N,/COL2*%
X167818400Y-97916000D03*
D11*
%TO.P,D7,2,A*%
%TO.N,Net-(D7-A)*%
X160198400Y-97916000D03*
%TD*%
D12*
%TO.P,SW1,1,1*%
%TO.N,/ROW0*%
X109696300Y-83026200D03*
%TO.P,SW1,2,2*%
%TO.N,Net-(D1-A)*%
X103346300Y-85566200D03*
%TD*%
%TO.P,SW4,1,1*%
%TO.N,/ROW0*%
X128746300Y-102076200D03*
%TO.P,SW4,2,2*%
%TO.N,Net-(D4-A)*%
X122396300Y-104616200D03*
%TD*%
D10*
%TO.P,D3,1,K*%
%TO.N,/COL2*%
X110966300Y-97490000D03*
D11*
%TO.P,D3,2,A*%
%TO.N,Net-(D3-A)*%
X103346300Y-97490000D03*
%TD*%
D12*
%TO.P,SW5,1,1*%
%TO.N,/ROW1*%
X166528800Y-83026200D03*
%TO.P,SW5,2,2*%
%TO.N,Net-(D5-A)*%
X160178800Y-85566200D03*
%TD*%
D10*
%TO.P,D2,1,K*%
%TO.N,/COL1*%
X130016300Y-78581200D03*
D11*
%TO.P,D2,2,A*%
%TO.N,Net-(D2-A)*%
X122396300Y-78581200D03*
%TD*%
D12*
%TO.P,SW6,1,1*%
%TO.N,/ROW1*%
X185578800Y-83026200D03*
%TO.P,SW6,2,2*%
%TO.N,Net-(D6-A)*%
X179228800Y-85566200D03*
%TD*%
D13*
%TO.P,J1,1,Pin_1*%
%TO.N,GND*%
X162871300Y-62980000D03*
D14*
%TO.P,J1,2,Pin_2*%
%TO.N,+5V*%
X162871300Y-65520000D03*
%TO.P,J1,3,Pin_3*%
%TO.N,/SCL*%
X162871300Y-68060000D03*
%TO.P,J1,4,Pin_4*%
%TO.N,/SDA*%
X162871300Y-70600000D03*
%TD*%
D10*
%TO.P,D8,1,K*%
%TO.N,/COL3*%
X186876600Y-97844800D03*
D11*
%TO.P,D8,2,A*%
%TO.N,Net-(D8-A)*%
X179256600Y-97844800D03*
%TD*%
D12*
%TO.P,SW2,1,1*%
%TO.N,/ROW0*%
X128746300Y-83026200D03*
%TO.P,SW2,2,2*%
%TO.N,Net-(D2-A)*%
X122396300Y-85566200D03*
%TD*%
D10*
%TO.P,D1,1,K*%
%TO.N,/COL0*%
X110966300Y-78581200D03*
D11*
%TO.P,D1,2,A*%
%TO.N,Net-(D1-A)*%
X103346300Y-78581200D03*
%TD*%
D12*
%TO.P,SW3,1,1*%
%TO.N,/ROW0*%
X109709700Y-102108400D03*
%TO.P,SW3,2,2*%
%TO.N,Net-(D3-A)*%
X103359700Y-104648400D03*
%TD*%
%TO.P,SW8,1,1*%
%TO.N,/ROW1*%
X185573300Y-102069200D03*
%TO.P,SW8,2,2*%
%TO.N,Net-(D8-A)*%
X179223300Y-104609200D03*
%TD*%
D10*
%TO.P,D5,1,K*%
%TO.N,/COL0*%
X167826600Y-78723600D03*
D11*
%TO.P,D5,2,A*%
%TO.N,Net-(D5-A)*%
X160206600Y-78723600D03*
%TD*%
D12*
%TO.P,SW7,1,1*%
%TO.N,/ROW1*%
X166537800Y-102077100D03*
%TO.P,SW7,2,2*%
%TO.N,Net-(D7-A)*%
X160187800Y-104617100D03*
%TD*%
D10*
%TO.P,D4,1,K*%
%TO.N,/COL3*%
X129063800Y-97631200D03*
D11*
%TO.P,D4,2,A*%
%TO.N,Net-(D4-A)*%
X121443800Y-97631200D03*
%TD*%
D10*
%TO.P,D6,1,K*%
%TO.N,/COL1*%
X186888800Y-78557500D03*
D11*
%TO.P,D6,2,A*%
%TO.N,Net-(D6-A)*%
X179268800Y-78557500D03*
%TD*%
D15*
%TO.P,U1,1,GPIO26/ADC0/A0*%
%TO.N,/COL0*%
X170141400Y-55306600D03*
D16*
%TO.P,U1,2,GPIO27/ADC1/A1*%
%TO.N,/COL1*%
X170141400Y-57846600D03*
%TO.P,U1,3,GPIO28/ADC2/A2*%
%TO.N,/COL2*%
X170141400Y-60386600D03*
%TO.P,U1,4,GPIO29/ADC3/A3*%
%TO.N,/COL3*%
X170141400Y-62926600D03*
%TO.P,U1,5,GPIO6/SDA*%
%TO.N,/ROW0*%
X170141400Y-65466600D03*
%TO.P,U1,6,GPIO7/SCL*%
%TO.N,/ROW1*%
X170141400Y-68006600D03*
%TO.P,U1,7,GPIO0/TX*%
%TO.N,/SDA*%
X170141400Y-70546600D03*
%TO.P,U1,8,GPIO1/RX*%
%TO.N,/SCL*%
X187391400Y-70546600D03*
%TO.P,U1,9,GPIO2/SCK*%
%TO.N,unconnected-(U1-GPIO2{slash}SCK-Pad9)*%
X187391400Y-68006600D03*
%TO.P,U1,10,GPIO4/MISO*%
%TO.N,unconnected-(U1-GPIO4{slash}MISO-Pad10)*%
X187391400Y-65466600D03*
D17*
%TO.P,U1,11,GPIO3/MOSI*%
%TO.N,Net-(D9-DIN)*%
X187391400Y-62926600D03*
%TO.P,U1,12,3V3*%
%TO.N,+3V3*%
X187391400Y-60386600D03*
%TO.P,U1,13,GND*%
%TO.N,GND*%
X187391400Y-57846600D03*
%TO.P,U1,14,VBUS*%
%TO.N,+5V*%
X187391400Y-55306600D03*
%TD*%
D18*
%TO.N,GND*%
X120203800Y-68400400D03*
%TO.N,Net-(D9-DIN)*%
X154414100Y-64250000D03*
%TO.N,+5V*%
X137888800Y-69010700D03*
X167880100Y-54541200D03*
X111361300Y-67306700D03*
%TO.N,Net-(D11-DOUT)*%
X109250200Y-65304800D03*
X134941300Y-65371400D03*
%TO.N,/ROW0*%
X129046300Y-71186600D03*
%TD*%
D19*
%TO.N,/COL0*%
X112134700Y-77412800D02*
X110966300Y-78581200D01*
X166515800Y-77412800D02*
X112134700Y-77412800D01*
X167826600Y-78723600D02*
X166515800Y-77412800D01*
%TO.N,/COL1*%
X185592300Y-79854000D02*
X131289100Y-79854000D01*
X131289100Y-79854000D02*
X130016300Y-78581200D01*
X186888800Y-78557500D02*
X185592300Y-79854000D01*
%TO.N,/COL2*%
X110966300Y-97490000D02*
X112867300Y-95589000D01*
X112867300Y-95589000D02*
X165491400Y-95589000D01*
X165491400Y-95589000D02*
X167818400Y-97916000D01*
%TO.N,/COL3*%
X186876600Y-97844800D02*
X185247000Y-99474400D01*
X185247000Y-99474400D02*
X130907000Y-99474400D01*
X130907000Y-99474400D02*
X129063800Y-97631200D01*
%TO.N,GND*%
X141384600Y-62980000D02*
X162871300Y-62980000D01*
X120203800Y-68400400D02*
X119103500Y-68400400D01*
X135964200Y-68400400D02*
X141384600Y-62980000D01*
X164023000Y-62980000D02*
X165336300Y-61666700D01*
X120203800Y-68400400D02*
X135964200Y-68400400D01*
X186391400Y-57846600D02*
X185239700Y-57846600D01*
X162871300Y-62980000D02*
X164023000Y-62980000D01*
X119103500Y-68400400D02*
X120203800Y-68400400D01*
X181419600Y-61666700D02*
X185239700Y-57846600D01*
X165336300Y-61666700D02*
X181419600Y-61666700D01*
%TO.N,Net-(D9-DIN)*%
X154414100Y-64249900D02*
X154414100Y-64250000D01*
X183916400Y-64249900D02*
X154414100Y-64249900D01*
X185239700Y-62926600D02*
X183916400Y-64249900D01*
X154414100Y-64249900D02*
X154414100Y-64250000D01*
X154414100Y-64250000D02*
X154414100Y-64249900D01*
X186391400Y-62926600D02*
X185239700Y-62926600D01*
%TO.N,+5V*%
X186391400Y-55306600D02*
X185239700Y-55306600D01*
X111361300Y-67306700D02*
X113065300Y-69010700D01*
X167880100Y-54541200D02*
X167880100Y-54154900D01*
X185239700Y-55306600D02*
X184088000Y-54154900D01*
X113065300Y-69010700D02*
X137888800Y-69010700D01*
X168266400Y-54154900D02*
X167880100Y-54541200D01*
X167880100Y-54154900D02*
X167880100Y-54541200D01*
X184088000Y-54154900D02*
X168266400Y-54154900D01*
X137888800Y-69010700D02*
X141379500Y-65520000D01*
X141379500Y-65520000D02*
X162871300Y-65520000D01*
%TO.N,Net-(D11-DOUT)*%
X109250200Y-65304800D02*
X110645900Y-63909100D01*
X110645900Y-63909100D02*
X133479000Y-63909100D01*
X133479000Y-63909100D02*
X134941300Y-65371400D01*
%TO.N,/SDA*%
X162871300Y-70600000D02*
X167986300Y-70600000D01*
X167986300Y-70600000D02*
X168039700Y-70546600D01*
X171141400Y-70546600D02*
X168039700Y-70546600D01*
%TO.N,/SCL*%
X165174700Y-69211700D02*
X183954800Y-69211700D01*
X162871300Y-68060000D02*
X164023000Y-68060000D01*
X186391400Y-70546600D02*
X185289700Y-70546600D01*
X164023000Y-68060000D02*
X165174700Y-69211700D01*
X183954800Y-69211700D02*
X185289700Y-70546600D01*
%TO.N,/ROW0*%
X162169300Y-66790000D02*
X166716300Y-66790000D01*
X166716300Y-66790000D02*
X168039700Y-65466600D01*
X109696300Y-83026200D02*
X128746300Y-83026200D01*
X109709700Y-102108400D02*
X128714100Y-102108400D01*
X171141400Y-65466600D02*
X168039700Y-65466600D01*
X157772700Y-71186600D02*
X162169300Y-66790000D01*
X128714100Y-102108400D02*
X128746300Y-102076200D01*
X129046300Y-71186600D02*
X157772700Y-71186600D01*
%TO.N,/ROW1*%
X185578800Y-83026200D02*
X166528800Y-83026200D01*
X166545700Y-102069200D02*
X166537800Y-102077100D01*
X185573300Y-102069200D02*
X166545700Y-102069200D01*
%TD*%
M02*
