M48
; DRILL file {KiCad 9.0.7} date 2026-02-18T12:12:23+0530
; FORMAT={-:-/ absolute / metric / decimal}
; #@! TF.CreationDate,2026-02-18T12:12:23+05:30
; #@! TF.GenerationSoftware,Kicad,Pcbnew,9.0.7
; #@! TF.FileFunction,Plated,1,2,PTH
FMAT,2
METRIC
; #@! TA.AperFunction,Plated,PTH,ViaDrill
T1C0.300
; #@! TA.AperFunction,Plated,PTH,ComponentDrill
T2C0.800
; #@! TA.AperFunction,Plated,PTH,ComponentDrill
T3C1.000
; #@! TA.AperFunction,Plated,PTH,ComponentDrill
T4C1.500
%
G90
G05
T1
X109.25Y-65.305
X111.361Y-67.307
X120.204Y-68.4
X129.046Y-71.187
X134.941Y-65.371
X137.889Y-69.011
X154.414Y-64.25
X167.88Y-54.541
T2
X103.346Y-78.581
X103.346Y-97.49
X110.966Y-78.581
X110.966Y-97.49
X121.444Y-97.631
X122.396Y-78.581
X129.064Y-97.631
X130.016Y-78.581
X160.198Y-97.916
X160.207Y-78.724
X167.818Y-97.916
X167.827Y-78.724
X179.257Y-97.845
X179.269Y-78.557
X186.877Y-97.845
X186.889Y-78.557
T3
X162.871Y-62.98
X162.871Y-65.52
X162.871Y-68.06
X162.871Y-70.6
X171.141Y-55.307
X171.141Y-57.847
X171.141Y-60.387
X171.141Y-62.927
X171.141Y-65.467
X171.141Y-68.007
X171.141Y-70.547
X186.391Y-55.307
X186.391Y-57.847
X186.391Y-60.387
X186.391Y-62.927
X186.391Y-65.467
X186.391Y-68.007
X186.391Y-70.547
T4
X103.346Y-85.566
X103.36Y-104.648
X109.696Y-83.026
X109.71Y-102.108
X122.396Y-85.566
X122.396Y-104.616
X128.746Y-83.026
X128.746Y-102.076
X160.179Y-85.566
X160.188Y-104.617
X166.529Y-83.026
X166.538Y-102.077
X179.223Y-104.609
X179.229Y-85.566
X185.573Y-102.069
X185.579Y-83.026
M30
